<svg xmlns="http://www.w3.org/2000/svg" xmlns:xlink="http://www.w3.org/1999/xlink" width="500" zoomAndPan="magnify" viewBox="0 0 375 374.999991" height="500" preserveAspectRatio="xMidYMid meet" version="1.0"><defs><clipPath id="b0aa7ba805"><path d="M 1 1 L 374.960938 1 L 374.960938 374.652344 L 1 374.652344 Z M 1 1 " clip-rule="nonzero"/></clipPath><clipPath id="189b27f53d"><path d="M 4 3 L 374.996094 3 L 374.996094 375 L 4 375 Z M 4 3 " clip-rule="nonzero"/></clipPath></defs><g clip-path="url(#b0aa7ba805)"><path fill="#000000" d="M 367.464844 3.621094 C 361.488281 0.402344 351.832031 0.402344 347.230469 4.082031 C 341.253906 8.21875 307.222656 52.355469 303.542969 57.414062 L 104.421875 261.089844 C 74.53125 259.710938 51.535156 269.367188 39.578125 279.019531 C -17.445312 326.375 6.929688 359.480469 7.847656 360.859375 C 7.847656 360.859375 7.847656 360.859375 7.847656 361.320312 C 16.125 369.136719 28.542969 374.191406 43.257812 374.191406 C 59.355469 374.191406 77.75 368.214844 95.683594 353.960938 C 123.277344 331.433594 124.65625 301.550781 123.734375 289.59375 L 123.734375 289.136719 C 123.734375 287.757812 125.113281 282.238281 126.035156 278.5625 L 327.457031 70.285156 L 367.464844 31.207031 C 367.925781 31.207031 374.363281 26.148438 374.363281 14.195312 C 374.363281 9.597656 372.066406 5.917969 367.464844 3.621094 Z M 364.707031 27.527344 L 324.238281 66.148438 L 122.355469 274.882812 C 121.894531 275.34375 121.894531 275.34375 121.894531 275.800781 C 121.4375 277.640625 119.136719 285.917969 119.136719 288.214844 C 119.136719 288.214844 119.136719 288.675781 119.136719 289.136719 C 119.597656 300.171875 118.21875 328.675781 92.464844 349.824219 C 62.113281 374.652344 27.164062 373.273438 11.066406 357.640625 C 9.6875 355.34375 -10.085938 325.457031 42.339844 282.238281 C 53.375 273.042969 75.449219 263.847656 104.882812 265.6875 C 105.339844 265.6875 106.261719 265.6875 106.71875 265.226562 L 306.761719 60.632812 C 321.9375 41.320312 345.851562 10.976562 349.53125 8.21875 C 352.289062 5.917969 360.109375 5.917969 365.167969 8.21875 C 367.925781 9.597656 369.304688 11.894531 369.304688 14.65625 C 369.765625 23.851562 365.167969 27.527344 364.707031 27.527344 Z M 364.707031 27.527344 " fill-opacity="1" fill-rule="nonzero"/></g><path fill="#000000" d="M 270.433594 103.851562 L 237.324219 136.492188 C 232.265625 141.550781 113.617188 259.710938 108.558594 266.148438 C 103.042969 273.042969 99.363281 284.996094 99.363281 289.59375 C 99.363281 290.976562 100.28125 291.894531 101.660156 291.894531 C 103.042969 291.894531 103.960938 290.976562 103.960938 289.59375 C 103.960938 286.378906 107.640625 274.882812 112.238281 268.90625 C 116.378906 263.847656 198.234375 182.011719 241.003906 139.710938 L 274.113281 107.066406 C 275.03125 106.148438 275.03125 104.769531 274.113281 103.851562 C 272.734375 102.929688 271.351562 102.929688 270.433594 103.851562 Z M 270.433594 103.851562 " fill-opacity="1" fill-rule="nonzero"/><path fill="#000000" d="M 296.644531 76.722656 L 276.410156 96.953125 C 275.492188 97.871094 275.492188 99.253906 276.410156 100.171875 C 276.871094 100.632812 277.332031 100.632812 278.25 100.632812 C 279.171875 100.632812 279.632812 100.632812 280.089844 100.171875 L 300.324219 79.941406 C 301.246094 79.023438 301.246094 77.644531 300.324219 76.722656 C 299.40625 75.804688 297.566406 75.804688 296.644531 76.722656 Z M 296.644531 76.722656 " fill-opacity="1" fill-rule="nonzero"/><path fill="#000000" d="M 117.296875 277.183594 C 115.917969 276.722656 114.996094 277.183594 114.539062 278.5625 C 112.699219 283.160156 109.9375 288.214844 109.019531 288.675781 C 107.640625 288.675781 106.71875 289.59375 106.71875 290.976562 C 106.71875 292.355469 107.640625 293.273438 109.019531 293.273438 C 113.160156 293.273438 116.378906 286.378906 118.675781 280.398438 C 119.136719 279.019531 118.675781 277.640625 117.296875 277.183594 Z M 117.296875 277.183594 " fill-opacity="1" fill-rule="nonzero"/><path fill="#000000" d="M 90.164062 291.433594 C 91.542969 291.433594 92.464844 290.054688 92.464844 289.136719 C 92.464844 287.296875 95.683594 280.859375 98.902344 275.34375 C 99.363281 274.421875 99.363281 273.042969 97.984375 272.125 C 97.0625 271.664062 95.683594 271.664062 94.765625 273.042969 C 92.925781 275.800781 87.40625 285.917969 87.867188 289.59375 C 87.867188 290.515625 88.785156 291.433594 90.164062 291.433594 Z M 90.164062 291.433594 " fill-opacity="1" fill-rule="nonzero"/><path fill="#000000" d="M 94.765625 294.652344 C 94.304688 293.734375 92.925781 293.273438 91.542969 293.734375 C 90.625 294.191406 90.164062 295.574219 90.625 296.953125 C 91.542969 298.789062 94.765625 303.386719 97.984375 303.386719 C 98.441406 303.386719 98.902344 303.386719 99.363281 303.386719 C 100.742188 302.929688 101.203125 301.550781 100.742188 300.628906 C 100.28125 299.25 99.363281 298.789062 97.984375 299.25 C 97.523438 298.789062 96.144531 296.953125 94.765625 294.652344 Z M 94.765625 294.652344 " fill-opacity="1" fill-rule="nonzero"/><path fill="#000000" d="M 110.859375 315.800781 C 109.480469 315.34375 108.558594 316.261719 108.101562 317.640625 C 108.101562 317.640625 101.660156 340.167969 79.128906 353.503906 C 78.207031 353.960938 77.75 355.34375 78.207031 356.722656 C 78.667969 357.640625 79.589844 357.640625 80.046875 357.640625 C 80.507812 357.640625 80.96875 357.640625 81.425781 357.179688 C 105.800781 342.929688 112.238281 319.941406 112.699219 318.5625 C 112.699219 317.179688 111.777344 315.800781 110.859375 315.800781 Z M 110.859375 315.800781 " fill-opacity="1" fill-rule="nonzero"/><path fill="#000000" d="M 71.769531 357.179688 C 68.089844 358.558594 57.054688 362.238281 52.457031 362.699219 C 51.078125 362.699219 50.15625 363.617188 50.15625 364.996094 C 50.15625 366.375 51.078125 367.296875 52.457031 367.296875 C 58.894531 366.835938 72.691406 361.777344 73.148438 361.777344 C 74.53125 361.320312 74.988281 359.941406 74.53125 359.019531 C 74.53125 357.179688 73.148438 356.722656 71.769531 357.179688 Z M 71.769531 357.179688 " fill-opacity="1" fill-rule="nonzero"/><path fill="#000000" d="M 54.296875 310.746094 C 54.753906 310.746094 55.675781 310.285156 56.136719 309.824219 C 66.25 297.871094 79.589844 293.734375 79.589844 293.734375 C 80.96875 293.273438 81.425781 291.894531 80.96875 290.976562 C 80.507812 289.59375 79.128906 289.136719 78.207031 289.59375 C 77.75 289.59375 63.03125 294.191406 52.457031 307.066406 C 51.535156 307.984375 51.535156 309.367188 52.914062 310.285156 C 52.914062 310.285156 53.375 310.746094 54.296875 310.746094 Z M 54.296875 310.746094 " fill-opacity="1" fill-rule="nonzero"/><path fill="#000000" d="M 51.996094 312.125 C 51.078125 311.203125 49.695312 310.746094 48.777344 311.664062 C 48.316406 311.664062 41.417969 317.179688 40.039062 323.617188 C 39.578125 324.996094 40.5 325.917969 41.878906 326.375 C 41.878906 326.375 42.339844 326.375 42.339844 326.375 C 43.257812 326.375 44.179688 325.457031 44.636719 324.539062 C 45.558594 320.859375 50.15625 316.722656 51.535156 315.34375 C 52.457031 314.421875 52.457031 313.042969 51.996094 312.125 Z M 51.996094 312.125 " fill-opacity="1" fill-rule="nonzero"/><path fill="#000000" d="M 345.390625 17.414062 C 344.472656 16.492188 343.09375 16.492188 342.171875 17.875 C 338.496094 22.011719 315.960938 51.4375 315.039062 52.816406 C 314.121094 53.734375 314.582031 55.113281 315.5 56.035156 C 315.960938 56.492188 316.421875 56.492188 316.878906 56.492188 C 317.800781 56.492188 318.261719 56.035156 318.71875 55.574219 C 319.179688 55.113281 342.171875 24.769531 345.851562 20.632812 C 346.3125 19.710938 346.3125 18.332031 345.390625 17.414062 Z M 345.390625 17.414062 " fill-opacity="1" fill-rule="nonzero"/><path fill="#000000" d="M 349.070312 32.125 L 322.398438 56.953125 C 321.480469 57.875 321.480469 59.253906 322.398438 60.171875 C 322.859375 60.632812 323.320312 61.089844 324.238281 61.089844 C 324.699219 61.089844 325.15625 61.089844 325.617188 60.632812 L 352.289062 35.804688 C 353.210938 34.882812 353.210938 33.503906 352.289062 32.585938 C 351.371094 31.667969 349.992188 31.207031 349.070312 32.125 Z M 349.070312 32.125 " fill-opacity="1" fill-rule="nonzero"/><path fill="#000000" d="M 364.707031 20.632812 C 363.328125 20.632812 362.40625 21.089844 362.40625 22.472656 C 361.949219 23.390625 358.269531 25.6875 355.050781 27.527344 C 354.128906 27.988281 353.210938 29.367188 354.128906 30.746094 C 354.589844 31.667969 355.507812 32.125 356.429688 32.125 C 356.890625 32.125 356.890625 32.125 357.347656 32.125 C 361.488281 29.828125 367.007812 27.070312 367.464844 23.851562 C 367.007812 22.011719 366.085938 20.632812 364.707031 20.632812 Z M 364.707031 20.632812 " fill-opacity="1" fill-rule="nonzero"/><path fill="#000000" d="M 350.449219 14.195312 C 350.910156 14.195312 351.832031 13.734375 352.289062 13.277344 C 355.507812 9.597656 360.566406 10.515625 360.566406 10.976562 C 361.949219 11.4375 362.867188 10.515625 363.328125 9.136719 C 363.785156 7.757812 362.867188 6.839844 361.488281 6.378906 C 361.027344 6.378906 353.667969 4.539062 348.609375 10.058594 C 347.691406 10.976562 347.691406 12.355469 348.609375 13.277344 C 349.070312 14.195312 349.992188 14.195312 350.449219 14.195312 Z M 350.449219 14.195312 " fill-opacity="1" fill-rule="nonzero"/><g clip-path="url(#189b27f53d)"><path fill="#000000" d="M 329.398438 372.089844 L 333.457031 368.023438 L 368.105469 333.351562 L 372.152344 329.300781 C 373.988281 327.488281 374.996094 325.066406 374.996094 322.472656 C 374.996094 322.453125 374.996094 322.4375 374.996094 322.417969 C 374.984375 319.796875 373.945312 317.359375 372.085938 315.558594 C 345.472656 289.460938 324.082031 274.667969 300.546875 281.550781 L 183.125 164.027344 C 183.386719 163.304688 183.613281 162.605469 183.800781 161.933594 C 184.09375 160.910156 183.796875 159.8125 183.046875 159.054688 L 161.578125 137.570312 C 162.046875 136.535156 162.511719 135.464844 162.96875 134.292969 C 163.417969 133.179688 163.839844 132.082031 164.257812 130.992188 C 166.316406 125.621094 168.097656 120.980469 172.855469 116.210938 C 183.074219 106.015625 201.941406 103.789062 202.125 103.769531 C 203.25 103.644531 204.203125 102.882812 204.578125 101.8125 C 204.957031 100.746094 204.679688 99.554688 203.882812 98.757812 L 129.269531 24.09375 C 104.464844 -0.726562 66.613281 -2.84375 19.796875 17.980469 C 19.128906 18.277344 18.597656 18.808594 18.300781 19.476562 C 8.832031 40.789062 4.113281 60.242188 4.113281 77.464844 C 4.117188 98.085938 10.894531 115.5 24.410156 129.027344 L 99.03125 203.699219 C 99.828125 204.496094 101.019531 204.769531 102.085938 204.394531 C 103.15625 204.019531 103.910156 203.066406 104.039062 201.941406 C 104.058594 201.75 106.25 182.902344 116.46875 172.652344 C 121.234375 167.886719 125.871094 166.105469 131.242188 164.046875 C 132.316406 163.632812 133.402344 163.214844 134.492188 162.769531 C 134.574219 162.742188 134.648438 162.710938 134.722656 162.675781 C 135.8125 162.253906 136.839844 161.8125 137.835938 161.355469 L 159.28125 182.84375 C 160.035156 183.59375 161.132812 183.886719 162.160156 183.597656 C 162.828125 183.414062 163.527344 183.183594 164.253906 182.925781 L 281.675781 300.402344 C 280.535156 304.292969 279.953125 308.128906 279.953125 311.9375 C 279.953125 331.175781 293.894531 349.765625 315.664062 372 C 317.480469 373.875 319.914062 374.910156 322.535156 374.925781 C 325.140625 374.933594 327.585938 373.925781 329.398438 372.089844 Z M 180.480469 169.707031 L 305.777344 295.117188 C 305.78125 295.121094 305.785156 295.125 305.789062 295.125 L 305.796875 295.136719 C 306.390625 295.722656 306.71875 296.53125 306.71875 297.40625 C 306.71875 297.414062 306.71875 297.414062 306.71875 297.417969 C 306.71875 298.402344 306.324219 299.339844 305.605469 300.058594 L 300.1875 305.480469 C 299.46875 306.203125 298.527344 306.597656 297.535156 306.597656 C 296.664062 306.59375 295.859375 306.265625 295.257812 305.660156 C 295.253906 305.65625 295.253906 305.65625 295.253906 305.652344 L 169.929688 180.273438 C 174.355469 177.683594 177.882812 174.152344 180.480469 169.707031 Z M 343.132812 313.015625 L 313.136719 343.03125 C 304.070312 332.945312 297.789062 323.515625 296.414062 312.371094 C 296.777344 312.417969 297.140625 312.480469 297.515625 312.480469 C 300.082031 312.492188 302.507812 311.480469 304.347656 309.640625 L 309.765625 304.21875 C 311.59375 302.386719 312.605469 299.972656 312.605469 297.410156 C 312.605469 297.402344 312.605469 297.390625 312.605469 297.378906 C 312.605469 297.003906 312.539062 296.644531 312.496094 296.277344 C 323.628906 297.660156 333.050781 303.945312 343.132812 313.015625 Z M 112.300781 168.484375 C 104.335938 176.476562 100.707031 188.449219 99.179688 195.515625 L 28.574219 124.859375 C -0.0742188 96.195312 9.691406 53.804688 23.222656 22.90625 C 54.097656 9.371094 96.453125 -0.414062 125.105469 28.257812 L 195.714844 98.914062 C 188.65625 100.445312 176.6875 104.074219 168.699219 112.046875 C 163.371094 117.375 161.136719 122.734375 159.132812 127.933594 C 139.265625 108.363281 88.347656 60.910156 74.773438 74.492188 C 73.117188 76.148438 72.367188 78.363281 72.367188 81.011719 C 72.367188 100.023438 110.890625 141.328125 128.183594 158.90625 C 122.980469 160.914062 117.628906 163.152344 112.300781 168.484375 Z M 143.261719 158.449219 C 146.28125 156.554688 149.105469 154.296875 151.8125 151.585938 C 154.5625 148.839844 156.792969 146.050781 158.683594 143.007812 L 177.617188 161.957031 C 177.429688 162.484375 177.222656 163.03125 176.984375 163.617188 C 174.363281 169.84375 170.066406 174.144531 163.878906 176.757812 C 163.875 176.757812 163.871094 176.757812 163.863281 176.761719 C 163.265625 177.007812 162.707031 177.21875 162.175781 177.402344 Z M 143.261719 158.449219 " fill-opacity="1" fill-rule="nonzero"/></g></svg>