<svg width="72" height="72" viewBox="0 0 72 72" fill="none" xmlns="http://www.w3.org/2000/svg">
<g clip-path="url(#clip0_603_51)">
<path d="M36.5333 33.6C34.8907 33.6 29.5333 33.2828 29.5333 29.2C29.5333 25.1172 34.8907 24.8 36.5333 24.8C44.4667 24.8 44.4667 27.9965 44.4667 29.2C44.4667 29.9426 44.8108 30.6548 45.4235 31.1799C46.0361 31.705 46.867 32 47.7333 32C48.5997 32 49.4306 31.705 50.0432 31.1799C50.6558 30.6548 51 29.9426 51 29.2C51 23.856 47.0514 20.36 40.2667 19.4466V17.2C40.2667 16.3513 39.8733 15.5374 39.1732 14.9373C38.4731 14.3371 37.5235 14 36.5333 14C35.5432 14 34.5936 14.3371 33.8935 14.9373C33.1933 15.5374 32.8 16.3513 32.8 17.2V19.523C26.8157 20.5755 23 24.1958 23 29.2C23 35.1813 28.4386 39.2 36.5333 39.2C39.2773 39.2 44.4667 40.1195 44.4667 43.6C44.4667 47.0805 39.2773 48 36.5333 48C34.8907 48 29.5333 47.6828 29.5333 43.6C29.5333 42.8574 29.1892 42.1452 28.5765 41.6201C27.9639 41.095 27.133 40.8 26.2667 40.8C25.4003 40.8 24.5694 41.095 23.9568 41.6201C23.3442 42.1452 23 42.8574 23 43.6C23 48.6042 26.8157 52.2245 32.8 53.277V54.8C32.8 55.6487 33.1933 56.4626 33.8935 57.0627C34.5936 57.6629 35.5432 58 36.5333 58C37.5235 58 38.4731 57.6629 39.1732 57.0627C39.8733 56.4626 40.2667 55.6487 40.2667 54.8V53.2808C46.0401 52.2982 51 49.0183 51 43.6C51 37.0351 43.722 33.6 36.5333 33.6Z" fill="#3AA938"/>
<path d="M14.311 28.7322C15.4036 25.9941 16.7837 23.3979 18.0565 21.5524L52.4203 55.9846C50.5907 57.246 48.1072 58.5568 45.4834 59.5802C42.6192 60.6974 39.634 61.454 37.182 61.454C30.9852 61.454 24.7569 58.5272 20.0713 54.0163C15.3856 49.5053 12.292 43.4585 12.292 37.274V37.1559L12.2906 37.1532C12.3164 34.7271 13.1368 31.6747 14.311 28.7322ZM59.9593 44.942C59.037 47.4698 57.8292 49.8575 56.5882 51.6703L22.3727 17.3864C24.1895 16.147 26.6293 14.9441 29.2129 14.0267C32.032 13.0256 34.9816 12.379 37.44 12.379C43.6304 12.379 49.6781 15.3678 54.1864 19.9425C58.6946 24.5171 61.62 30.6339 61.62 36.829C61.62 39.2882 60.9669 42.1801 59.9593 44.942ZM37 7.5C20.7039 7.5 7.5 20.7039 7.5 37C7.5 53.2961 20.7039 66.5 37 66.5C53.2961 66.5 66.5 53.2961 66.5 37C66.5 20.7039 53.2961 7.5 37 7.5Z" fill="#EA5A47" stroke="#EA5A47"/>
</g>
<defs>
<clipPath id="clip0_603_51">
<rect width="72" height="72" fill="white"/>
</clipPath>
</defs>
</svg>
