<svg width="72" height="72" viewBox="0 0 72 72" fill="none" xmlns="http://www.w3.org/2000/svg">
<g clip-path="url(#clip0_602_25)">
<path d="M47.6763 45.6906C54.664 37.0211 54.9744 25.6777 48.3698 20.3543C41.7651 15.0309 30.7463 17.7434 23.7587 26.4129C16.771 35.0824 16.4606 46.4258 23.0653 51.7492C29.6699 57.0726 40.6887 54.3601 47.6763 45.6906Z" fill="#FCEA2B"/>
<path d="M48.2077 20.354C45.5855 18.3115 42.2798 17.3523 38.9716 17.674C41.5237 17.8298 43.9665 18.7652 45.9698 20.354C52.5745 25.6774 52.264 37.0207 45.2764 45.6903C41.0125 50.9804 35.2486 54.0472 29.9014 54.429C35.8259 54.8727 42.6472 51.7286 47.5141 45.6903C54.5019 37.0207 54.8124 25.6772 48.2077 20.354Z" fill="white"/>
<path d="M50.4366 21.0847C50.0934 20.808 49.73 20.5422 49.3549 20.2946C49.3299 20.2825 49.3042 20.2721 49.2779 20.2634C49.1584 20.2041 49.0247 20.1795 48.892 20.1922C48.7558 20.2063 48.6277 20.2636 48.5265 20.3558C48.5037 20.3702 48.4819 20.386 48.4611 20.4031C48.4479 20.4174 48.4439 20.4358 48.4321 20.4508C48.4203 20.4658 48.4034 20.4743 48.3926 20.4906C48.3808 20.5152 48.3705 20.5406 48.3618 20.5665C48.3018 20.6873 48.2772 20.8226 48.2909 20.9568C48.2969 21 48.307 21.0425 48.3211 21.0838C48.346 21.1708 48.391 21.2506 48.4524 21.317C48.4671 21.3405 48.4834 21.363 48.501 21.3845C54.25 26.6874 53.6504 37.1736 47.1366 45.256C40.3991 53.6137 29.7964 56.2838 23.5018 51.2096C23.4612 51.1826 23.4179 51.16 23.3725 51.1425C23.3593 51.1355 23.3473 51.1286 23.3338 51.1224C23.2675 51.0942 23.1972 51.0768 23.1254 51.0709C23.1067 51.0691 23.089 51.0665 23.0699 51.0662C22.9215 51.0622 22.7765 51.1102 22.6598 51.2019C22.6365 51.214 22.6139 51.2274 22.5923 51.2422C22.5789 51.2543 22.5736 51.271 22.5614 51.2838C22.5504 51.2957 22.5354 51.3013 22.5251 51.314C22.513 51.3345 22.502 51.3556 22.4923 51.3772C22.4583 51.4256 22.431 51.4783 22.4109 51.5339C22.4042 51.5561 22.3986 51.5785 22.3943 51.6013C22.3778 51.6686 22.3718 51.7381 22.3766 51.8072C22.3777 51.8211 22.3804 51.834 22.3824 51.8479C22.3922 51.9234 22.4148 51.9966 22.4492 52.0645C22.4547 52.0754 22.4616 52.085 22.4677 52.0956C22.4881 52.1407 22.5135 52.1834 22.5434 52.2228C23.0326 52.7631 23.5634 53.2643 24.131 53.7215C26.7847 55.8205 30.0822 56.9379 33.4652 56.8845C39.4305 56.8845 45.8893 53.7734 50.4988 48.0547C57.7513 39.0568 57.7229 26.9576 50.4366 21.0847Z" fill="#F1B31C"/>
<path d="M26.3428 43.0553C26.3929 42.8945 26.7655 41.518 26.8156 41.3571C30.9249 41.4303 31.1274 41.2934 31.738 39.2682C32.8915 35.4427 33.2275 34.7584 34.3809 30.9329C34.7853 29.5917 34.7136 29.2983 32.7906 28.9315L31.6189 28.7156C31.6626 28.5743 31.9254 27.2749 31.9692 27.1336C34.8054 27.1351 37.6386 26.9522 40.4511 26.5862L36.6323 39.7806C36.0362 41.8403 36.1097 42.005 40.0551 42.7676C40.0095 42.9306 39.6393 44.3081 39.5938 44.4711L26.3428 43.0553Z" fill="#F1B31C"/>
<path d="M48.9706 20.8728C49.323 21.1049 49.6661 21.3553 49.9999 21.6241C56.9999 27.2661 56.981 38.9038 49.9575 47.6177C42.9341 56.3315 31.566 58.8217 24.566 53.1796C24.0268 52.7452 23.5224 52.2692 23.0576 51.756" stroke="black" stroke-width="2" stroke-miterlimit="10"/>
<path d="M47.6763 45.6906C54.664 37.0211 54.9744 25.6777 48.3698 20.3543C41.7651 15.0309 30.7463 17.7434 23.7587 26.4129C16.771 35.0824 16.4606 46.4258 23.0653 51.7492C29.6699 57.0726 40.6887 54.3601 47.6763 45.6906Z" stroke="black" stroke-width="2" stroke-miterlimit="10"/>
<path d="M47.6768 45.6907L49.9582 47.6178" stroke="black" stroke-width="2" stroke-miterlimit="10"/>
<path d="M45.2754 48.2917L47.287 50.4531" stroke="black" stroke-width="2" stroke-miterlimit="10"/>
<path d="M42.7344 50.4055L44.3856 52.7126" stroke="black" stroke-width="2" stroke-miterlimit="10"/>
<path d="M39.9463 52.2651L41.2468 54.5876" stroke="black" stroke-width="2" stroke-miterlimit="10"/>
<path d="M49.5254 43.0933L51.9482 44.7698" stroke="black" stroke-width="2" stroke-miterlimit="10"/>
<path d="M26.3428 43.0553C26.3929 42.8945 26.7655 41.518 26.8156 41.3571C30.9249 41.4303 31.1274 41.2934 31.738 39.2682C32.8915 35.4427 33.2275 34.7584 34.3809 30.9329C34.7853 29.5917 34.7136 29.2983 32.7906 28.9315L31.6189 28.7156C31.6626 28.5743 31.9254 27.2749 31.9692 27.1336C34.8054 27.1351 37.6386 26.9522 40.4511 26.5862L36.6323 39.7806C36.0362 41.8403 36.1097 42.005 40.0551 42.7676C40.0095 42.9306 39.6393 44.3081 39.5938 44.4711L26.3428 43.0553Z" stroke="black" stroke-width="2" stroke-linecap="round" stroke-linejoin="round"/>
</g>
<path d="M14.311 28.7322C15.4036 25.9941 16.7837 23.3979 18.0565 21.5524L52.4203 55.9846C50.5907 57.246 48.1072 58.5568 45.4834 59.5802C42.6192 60.6974 39.634 61.454 37.182 61.454C30.9852 61.454 24.7569 58.5272 20.0713 54.0163C15.3856 49.5053 12.292 43.4585 12.292 37.274V37.1559L12.2906 37.1532C12.3164 34.7271 13.1368 31.6747 14.311 28.7322ZM59.9593 44.942C59.037 47.4698 57.8292 49.8575 56.5882 51.6703L22.3727 17.3864C24.1895 16.147 26.6293 14.9441 29.2129 14.0267C32.032 13.0256 34.9816 12.379 37.44 12.379C43.6304 12.379 49.6781 15.3678 54.1864 19.9425C58.6946 24.5171 61.62 30.6339 61.62 36.829C61.62 39.2882 60.9669 42.1801 59.9593 44.942ZM37 7.5C20.7039 7.5 7.5 20.7039 7.5 37C7.5 53.2961 20.7039 66.5 37 66.5C53.2961 66.5 66.5 53.2961 66.5 37C66.5 20.7039 53.2961 7.5 37 7.5Z" fill="#EA5A47" stroke="#EA5A47"/>
<defs>
<clipPath id="clip0_602_25">
<rect width="50" height="50" fill="white" transform="translate(12 12)"/>
</clipPath>
</defs>
</svg>
