<?xml version="1.0" standalone="no"?>
<!DOCTYPE svg PUBLIC "-//W3C//DTD SVG 20010904//EN"
 "http://www.w3.org/TR/2001/REC-SVG-20010904/DTD/svg10.dtd">
<svg version="1.0" xmlns="http://www.w3.org/2000/svg"
 width="700.000000pt" height="700.000000pt" viewBox="0 0 700.000000 700.000000"
 preserveAspectRatio="xMidYMid meet">
<metadata>
Created by potrace 1.14, written by Peter Selinger 2001-2017
</metadata>
<g transform="translate(0.000000,700.000000) scale(0.100000,-0.100000)"
fill="#000000" stroke="none">
<path d="M6605 6973 c-51 -9 -113 -38 -144 -67 -93 -87 -385 -443 -718 -876
-87 -114 -79 -105 -602 -639 -196 -200 -394 -403 -441 -451 -47 -48 -250 -255
-451 -461 -201 -206 -436 -446 -522 -534 l-156 -160 -74 74 c-72 72 -74 75
-70 115 l5 41 -206 207 c-113 113 -206 209 -206 212 0 14 85 217 113 271 70
133 216 239 416 305 92 30 107 33 186 45 22 4 50 13 63 21 56 36 70 20 -720
810 -409 407 -774 764 -812 791 -238 175 -508 254 -846 248 -91 -2 -181 -6
-200 -9 -19 -3 -53 -8 -75 -11 -44 -6 -44 -6 -130 -24 -120 -25 -369 -100
-450 -135 -16 -7 -67 -28 -112 -46 -46 -19 -91 -43 -102 -54 -22 -24 -103
-231 -156 -396 -116 -361 -146 -710 -88 -1000 35 -176 104 -339 205 -488 39
-57 244 -270 797 -824 410 -412 753 -751 764 -754 37 -12 64 20 76 90 37 214
122 399 232 507 63 62 131 101 278 160 l115 45 209 -208 209 -209 40 6 c40 7
41 6 115 -70 l75 -77 -90 -92 c-50 -50 -137 -139 -194 -197 -56 -59 -252 -259
-434 -445 -183 -187 -381 -389 -440 -450 l-109 -111 -160 -6 c-88 -4 -177 -9
-197 -11 -384 -49 -677 -168 -915 -372 -101 -87 -252 -240 -329 -334 -262
-321 -366 -655 -294 -943 44 -176 115 -262 284 -346 217 -108 464 -132 744
-74 277 57 640 262 832 470 88 95 102 114 158 196 155 233 233 499 233 792 0
85 5 144 20 205 23 97 8 78 288 366 86 88 264 272 396 409 132 137 314 324
404 417 l164 168 837 -838 837 -838 -17 -82 c-61 -309 90 -649 474 -1067 202
-219 217 -232 285 -241 87 -12 93 -7 553 453 467 468 458 458 443 560 -6 44
-14 55 -108 148 -307 302 -597 505 -819 572 -118 35 -249 47 -353 30 -16 -3
-48 -8 -70 -12 l-40 -6 -840 840 c-828 829 -839 841 -820 859 11 11 128 131
260 267 132 137 304 314 381 394 78 80 172 178 209 216 60 63 337 349 676 700
69 71 200 206 290 300 200 207 566 573 915 915 l261 255 24 75 c34 108 33 209
-3 271 -31 53 -89 94 -160 116 -49 14 -154 23 -193 16z m-56 -126 c-46 -31
-63 -65 -45 -92 16 -24 51 -22 81 5 42 37 106 53 146 36 20 -9 62 31 55 51
-14 37 68 -17 90 -58 20 -39 21 -117 4 -190 l-13 -52 -15 29 c-8 16 -19 32
-24 35 -17 11 -56 -3 -61 -21 -4 -17 -118 -100 -137 -100 -19 0 -29 -36 -17
-61 18 -35 47 -34 114 1 43 24 52 26 33 10 -14 -12 -70 -65 -125 -118 -55 -54
-186 -178 -290 -277 -231 -219 -368 -356 -680 -680 -132 -137 -308 -319 -391
-405 -83 -85 -173 -178 -200 -206 -27 -29 -155 -161 -284 -294 -129 -133 -270
-279 -313 -324 -44 -44 -174 -179 -290 -300 -117 -120 -238 -246 -270 -279
l-59 -60 -64 64 -64 64 352 352 c194 194 510 507 701 695 191 189 347 351 347
360 0 23 -38 48 -60 40 -20 -8 -448 -427 -1026 -1003 -359 -359 -381 -379
-396 -362 -18 20 -67 -32 696 747 193 197 389 397 435 445 46 47 239 245 430
440 190 194 383 391 428 437 45 46 106 114 136 152 29 37 109 137 176 222 67
85 139 175 159 199 20 24 44 54 52 65 8 12 43 57 79 101 175 214 273 326 300
340 41 22 47 17 10 -8z m-4834 -52 c166 -31 324 -96 458 -187 34 -23 107 -86
162 -139 74 -72 1298 -1297 1312 -1313 1 -1 -41 -14 -94 -29 -182 -51 -342
-145 -437 -257 -52 -60 -112 -161 -129 -215 -6 -19 -13 -35 -17 -35 -4 0 -34
26 -67 58 -211 201 -311 293 -463 422 -47 40 -97 83 -112 96 -49 43 -302 229
-373 276 -173 113 -333 179 -438 179 -71 1 -113 -22 -145 -77 -54 -92 2 -275
155 -513 97 -150 282 -390 432 -561 117 -132 180 -201 358 -388 l72 -76 -97
-47 c-109 -53 -176 -106 -246 -193 -58 -73 -138 -235 -167 -341 -12 -44 -25
-83 -29 -88 -6 -7 -1347 1329 -1404 1400 -113 138 -204 345 -241 548 -11 62
-14 392 -4 463 32 225 123 547 207 733 27 59 35 68 69 79 21 7 43 16 48 20 35
26 382 134 525 164 108 22 127 25 205 32 39 4 72 8 73 10 12 9 311 -6 387 -21z
m1595 -2823 c0 -28 -55 -118 -102 -168 -28 -29 -78 -67 -114 -86 l-64 -33
-175 175 c-96 96 -175 177 -175 180 1 3 28 25 62 50 59 44 185 177 208 220 11
20 21 12 186 -152 96 -95 174 -179 174 -186z m122 -202 c58 -57 60 -61 44 -79
-9 -10 -53 -56 -97 -102 l-80 -82 -62 62 -62 63 30 21 c45 33 143 136 150 158
4 10 8 19 11 19 2 0 32 -27 66 -60z m143 -143 c11 -12 -3 -30 -86 -113 -87
-87 -101 -97 -114 -84 -13 14 -4 26 78 113 50 53 96 97 100 97 5 0 14 -6 22
-13z m153 -264 c-29 -30 -73 -75 -97 -100 l-44 -44 -64 62 c-34 35 -63 66 -63
70 0 4 44 50 97 103 l97 96 64 -67 64 -66 -54 -54z m-420 -24 c-2 -4 -203
-210 -448 -457 -694 -700 -824 -834 -857 -883 -66 -96 -133 -270 -147 -381 -6
-47 22 -77 58 -60 18 8 25 21 29 57 19 137 108 319 208 425 73 78 1170 1181
1207 1214 21 18 22 17 88 -48 l67 -67 -85 -87 c-46 -48 -104 -107 -127 -132
-45 -47 -432 -447 -657 -679 -168 -173 -319 -330 -345 -357 -35 -37 -70 -193
-74 -333 -5 -143 -10 -196 -32 -301 -69 -342 -244 -609 -555 -849 -10 -7 -18
-11 -18 -9 0 3 21 22 47 42 184 143 348 367 423 577 22 60 -6 114 -47 91 -8
-5 -29 -44 -47 -88 -94 -231 -271 -450 -465 -577 -62 -41 -71 -51 -71 -77 0
-19 5 -30 14 -30 36 0 21 -21 -37 -52 -63 -34 -64 -34 -51 -9 11 21 11 29 0
46 -16 24 -30 25 -72 8 -46 -18 -264 -81 -304 -88 -63 -10 -70 -15 -70 -45 0
-40 24 -51 85 -38 28 5 61 11 75 14 14 3 70 19 124 35 55 17 106 33 115 36 14
4 14 3 1 -5 -23 -15 -212 -80 -251 -86 -19 -3 -59 -11 -89 -17 -30 -7 -120
-12 -200 -12 -171 0 -275 21 -404 82 -125 59 -181 105 -215 176 -113 235 -72
529 115 823 142 223 446 522 645 635 154 87 375 162 539 183 25 3 52 7 60 9
39 10 169 18 303 19 l147 1 107 110 c58 61 276 283 483 495 207 212 450 460
540 552 131 134 166 166 177 156 7 -6 12 -14 11 -19z m2408 -1867 c18 -35 8
-55 -66 -126 -52 -50 -75 -66 -97 -66 -24 0 -159 131 -963 935 l-934 935 98
99 99 99 925 -926 c509 -510 931 -937 938 -950z m234 -28 c112 -32 286 -138
415 -252 l37 -33 -23 -26 c-13 -14 -138 -139 -278 -279 -294 -294 -248 -279
-366 -122 -108 142 -173 271 -191 378 -3 14 -7 33 -10 43 -4 14 1 17 33 17 49
0 91 26 169 105 70 71 96 113 97 161 1 32 3 33 31 28 17 -2 56 -12 86 -20z
m-4400 -1099 c0 -2 -10 -9 -22 -15 -22 -11 -22 -10 -4 4 21 17 26 19 26 11z"/>
<path d="M6395 6676 c-6 -6 -44 -54 -85 -106 -41 -52 -77 -97 -80 -100 -3 -3
-35 -43 -70 -90 -35 -47 -66 -87 -69 -90 -19 -17 -221 -291 -221 -299 0 -20
39 -51 55 -45 9 4 93 106 187 228 93 121 181 235 194 251 130 166 154 201 154
221 0 33 -44 54 -65 30z"/>
<path d="M6460 6349 c-36 -34 -121 -114 -190 -178 -292 -271 -280 -257 -251
-292 26 -33 53 -21 143 66 41 39 130 122 198 185 252 234 249 230 212 263 -29
26 -42 21 -112 -44z"/>
<path d="M5349 5381 c-118 -118 -199 -207 -199 -218 0 -11 5 -24 12 -31 31
-31 56 -13 257 189 111 111 201 206 201 211 0 24 -23 48 -46 48 -20 0 -70 -44
-225 -199z"/>
<path d="M1775 1906 c-29 -29 -110 -194 -127 -259 -13 -52 -5 -79 26 -85 26
-5 43 15 62 71 9 29 39 94 66 145 35 66 48 100 44 116 -8 34 -43 40 -71 12z"/>
<path d="M2101 1724 c-36 -72 -60 -108 -76 -114 -35 -13 -43 -50 -16 -71 46
-37 109 15 169 139 41 84 47 115 27 136 -33 33 -48 19 -104 -90z"/>
<path d="M1430 1586 c-136 -50 -311 -166 -407 -270 -53 -57 -63 -82 -41 -104
23 -23 47 -11 116 56 93 93 180 153 306 213 89 41 106 53 106 72 0 25 -17 47
-34 46 -6 0 -27 -6 -46 -13z"/>
<path d="M1702 1508 c-28 -28 -6 -78 62 -141 25 -23 38 -27 71 -25 37 3 40 5
43 36 2 21 -1 32 -10 33 -7 1 -20 2 -28 3 -8 0 -25 17 -37 36 -49 72 -73 86
-101 58z"/>
<path d="M905 1179 c-49 -27 -136 -143 -155 -208 -6 -24 -5 -35 7 -47 27 -26
56 -13 84 39 14 26 48 73 75 103 63 72 67 80 54 104 -12 22 -34 25 -65 9z"/>
</g>
</svg>
